<?xml version="1.0" encoding="UTF-8" standalone="no"?>
<!DOCTYPE svg PUBLIC "-//W3C//DTD SVG 1.1//EN" "http://www.w3.org/Graphics/SVG/1.1/DTD/svg11.dtd">
<svg xmlns:xl="http://www.w3.org/1999/xlink" xmlns:dc="http://purl.org/dc/elements/1.1/" xmlns="http://www.w3.org/2000/svg" version="1.1" viewBox="61 -57 2547 714" width="2547" height="714">
  <defs>
    <filter id="Shadow" filterUnits="userSpaceOnUse" x="-193.7" y="-128.4">
      <feGaussianBlur in="SourceAlpha" result="blur" stdDeviation="-3.3333333"/>
      <feOffset in="blur" result="offset" dx="0" dy="2"/>
      <feFlood flood-color="black" flood-opacity=".5" result="flood"/>
      <feComposite in="flood" in2="offset" operator="in" result="color"/>
      <feMerge>
        <feMergeNode in="color"/>
        <feMergeNode in="SourceGraphic"/>
      </feMerge>
    </filter>
    <filter id="Shadow_2" filterUnits="userSpaceOnUse" x="-193.7" y="-128.4">
      <feGaussianBlur in="SourceAlpha" result="blur" stdDeviation="-5.3333333"/>
      <feOffset in="blur" result="offset" dx="0" dy="4"/>
      <feFlood flood-color="black" flood-opacity=".5977663" result="flood"/>
      <feComposite in="flood" in2="offset" operator="in" result="color"/>
      <feMerge>
        <feMergeNode in="color"/>
        <feMergeNode in="SourceGraphic"/>
      </feMerge>
    </filter>
  </defs>
  <g id="Canvas_1" fill-opacity="1" stroke-opacity="1" stroke-dasharray="none" stroke="none" fill="none">
    <title>Canvas 1</title>
    <g id="Canvas_1_Layer_1">
      <title>Layer 1</title>
      <g id="Graphic_7" filter="url(#Shadow)">
        <path d="M 105.9999 -42.493434 L 2561.2963 -48.48782 C 2580.6262 -48.535015 2596.3344 -32.903284 2596.3816 -13.573376 C 2596.3816 -13.573376 2596.3816 -13.573376 2596.3816 -13.573376 L 2597.888 603.4081 C 2597.935 622.738 2582.3034 638.44624 2562.9735 638.4934 L 107.6771 644.4878 C 88.34719 644.535 72.63895 628.9033 72.591755 609.5734 C 72.591755 609.5734 72.591755 609.5734 72.591755 609.5734 L 71.08545 -7.40809 C 71.03826 -26.737998 86.66999 -42.44624 105.9999 -42.493434 C 105.9999 -42.493434 105.9999 -42.493434 105.9999 -42.493434 Z" fill="white"/>
      </g>
      <g id="Graphic_6" filter="url(#Shadow_2)">
        <path d="M 424.5466 15.000356 L 424.5466 15 L 142 15 L 142 297.54658 L 142.00036 297.54658 C 142.00012 297.6977 142 297.84884 142 298 C 142 454.2966 268.7034 581 425 581 L 707.5466 581 L 707.5466 314.1558 C 707.8475 308.80885 708 303.42223 708 298 C 708 141.70342 581.2966 15 425 15 C 424.84883 15 424.6977 15.000119 424.54656 15.000356 Z" fill="#f16334"/>
      </g>
      <g id="Graphic_5">
        <title>R</title>
        <path d="M 434.151 403.3893 L 349.11754 361.88755 C 327.46435 391.5103 315.3598 411.05804 312.8035 420.5313 C 310.9991 427.29794 306.97676 432.9743 300.73643 437.56056 C 294.4961 442.14683 290.02268 444.43993 287.31603 444.43993 C 279.6472 444.43993 275.81283 441.50777 275.81283 435.64336 C 275.81283 432.33524 280.36144 422.8245 289.4588 407.1109 C 298.55613 391.3973 311.0742 372.86456 327.01335 351.5121 C 318.14156 347.90325 312.65316 345.49737 310.548 344.2944 C 308.4428 343.09146 307.6158 340.79836 308.0669 337.41505 C 308.518 334.03174 311.14944 328.7313 315.96126 321.51357 C 320.1716 315.19806 323.3293 310.9502 325.43448 308.76983 C 327.53965 306.58947 330.0207 304.86025 332.87773 303.5821 C 335.73475 302.30397 338.7421 301.43936 341.89985 300.98825 C 345.0576 300.53714 353.92926 299.4094 368.5151 297.60496 C 380.39428 281.51543 393.28826 264.14803 407.19742 245.50223 C 421.1066 226.85642 431.9706 212.346 439.7898 201.9705 C 416.18183 205.12826 399.71663 207.7597 390.39373 209.86486 C 380.46935 211.81966 372.16157 213.4361 365.47013 214.71425 C 358.7787 215.9924 354.0797 217.12014 351.37307 218.09754 C 348.6664 219.07494 347.3131 220.46584 347.3131 222.27027 C 347.3131 223.92433 348.96715 225.0521 352.2753 225.65357 C 355.5834 226.25504 359.7561 226.55578 364.79347 226.55578 C 369.83084 226.55578 373.7404 226.74374 376.52222 227.11966 C 379.30406 227.49558 380.69495 228.3602 380.69495 229.71352 C 380.69495 231.2172 378.85296 232.08182 375.1689 232.30738 C 371.48486 232.53293 361.1471 233.02163 344.15538 233.77347 C 334.53173 234.0742 326.4495 234.37495 319.90843 234.67568 C 313.36736 234.97642 308.81876 235.1268 306.26248 235.1268 C 302.804 235.1268 300.09738 234.07422 298.14257 231.96905 C 296.18777 229.86388 295.2104 227.08209 295.2104 223.6236 C 295.2104 221.0673 296.63887 216.33075 299.4959 209.41375 C 302.3529 202.49676 306.41282 195.5047 311.67575 188.43733 C 316.93868 181.36997 322.95336 175.88157 329.72 171.97196 C 337.38883 167.31051 349.3054 162.61154 365.47013 157.8749 C 381.63484 153.13827 399.6037 149.3039 419.3773 146.3717 C 439.15086 143.4395 458.7362 141.97342 478.1338 141.97342 C 489.86264 141.97342 501.32813 142.65007 512.53065 144.0034 C 523.7332 145.35672 533.88295 147.01076 542.9803 148.96556 C 552.07765 150.92037 559.2577 152.87514 564.5206 154.82994 C 578.2042 159.34102 588.6923 166.18273 595.98524 175.35526 C 603.27816 184.5278 606.92456 194.60239 606.92456 205.57935 C 606.92456 216.25558 605.08256 226.6685 601.3985 236.81844 C 597.71446 246.96837 592.0757 256.36632 584.48204 265.01256 C 576.8884 273.6588 567.7536 280.68846 557.07736 286.10176 C 548.35594 290.61284 535.1236 295.19904 517.38004 299.8605 C 499.63645 304.52194 478.20914 308.65703 453.09745 312.2659 C 427.98576 315.87476 399.9423 318.5062 368.9662 320.16025 C 392.1231 328.2802 413.73836 336.4376 433.81267 344.63275 C 453.887 352.82788 470.8033 360.1207 484.5621 366.5114 C 498.3209 372.9021 509.1097 378.12734 516.92893 382.1873 C 527.9059 387.90135 535.04834 392.03645 538.35646 394.59272 C 541.6646 397.149 543.8449 400.4571 544.8975 404.51705 C 545.9501 408.57703 546.4764 415.26837 546.4764 424.59127 C 546.4764 435.1171 545.8373 442.8986 544.5592 447.936 C 543.281 452.97337 540.5368 455.492 536.3265 455.492 C 534.97316 455.492 531.40194 454.02594 525.6127 451.09374 C 519.8235 448.16154 511.81645 443.87607 501.59133 438.2372 C 491.3662 432.59837 482.08105 427.56107 473.73554 423.12517 C 465.39004 418.6893 452.19533 412.1107 434.151 403.3893 Z M 453.99966 199.71498 C 454.15003 200.76756 454.2628 201.74495 454.338 202.64717 C 454.4132 203.54938 454.45077 204.8275 454.45077 206.48157 C 454.45077 210.6919 453.13506 215.54125 450.5036 221.02973 C 447.8721 226.5182 444.48887 232.15698 440.3537 237.9462 C 436.21855 243.73542 430.0535 252.00562 421.85837 262.75703 C 413.66323 273.50844 406.1073 283.39508 399.1903 292.41724 C 430.76787 286.40246 457.7212 280.61333 480.051 275.04966 C 502.3809 269.486 520.76326 263.88482 535.1987 258.24597 C 549.6342 252.60712 560.4982 246.6676 567.7911 240.42728 C 575.08404 234.18695 578.73044 227.68358 578.73044 220.91695 C 578.73044 213.39848 571.0993 207.49657 555.8368 203.21105 C 540.5743 198.92552 521.8912 196.7828 499.7869 196.7828 C 495.2758 196.7828 490.5017 196.89556 485.4643 197.12112 C 480.4269 197.34667 474.41224 197.79777 467.42006 198.47444 C 460.4279 199.1511 455.95446 199.5646 453.99966 199.71498 Z" fill="white"/>
      </g>
      <g id="Graphic_4">
        <text transform="translate(874 37)" fill="#6c6c6c">
          <tspan font-family="Helvetica Neue" font-weight="bold" font-size="115" fill="#6c6c6c" x="0" y="112">RESOLVE v2:</tspan>
        </text>
      </g>
      <g id="Graphic_3">
        <text transform="translate(874 272)" fill="#6c6c6c">
          <tspan font-family="Helvetica Neue" font-size="115" fill="#6c6c6c" x="0" y="109">An Integrated Specification and </tspan>
          <tspan font-family="Helvetica Neue" font-size="115" fill="#6c6c6c" x="0" y="245.22">Programming Language</tspan>
        </text>
      </g>
      <g id="Line_2">
        <line x1="869" y1="221" x2="2482" y2="221" stroke="#6c6c6c" stroke-linecap="round" stroke-linejoin="round" stroke-width="6"/>
      </g>
    </g>
  </g>
</svg>
