<?xml version="1.0" encoding="UTF-8" standalone="no"?>
<!DOCTYPE svg PUBLIC "-//W3C//DTD SVG 1.1//EN" "http://www.w3.org/Graphics/SVG/1.1/DTD/svg11.dtd">
<svg version="1.1" xmlns:dc="http://purl.org/dc/elements/1.1/" xmlns:xl="http://www.w3.org/1999/xlink" xmlns="http://www.w3.org/2000/svg" viewBox="70 197 555 160" width="555" height="160">
  <defs/>
  <g id="Canvas_1" fill="none" stroke-dasharray="none" fill-opacity="1" stroke-opacity="1" stroke="none">
    <title>Canvas 1</title>
    <g id="Canvas_1_Layer_1">
      <title>Layer 1</title>
      <g id="Graphic_5">
        <path d="M 134.00155 326.3125 L 137.68373 329.99468 C 138.79409 331.10504 140.59434 331.10504 141.7047 329.99468 C 142.23792 329.46146 142.53748 328.73827 142.53748 327.9842 L 142.53748 226.0158 C 142.53748 224.44552 141.2645 223.17255 139.69422 223.17255 C 138.94014 223.17255 138.21694 223.4721 137.68373 224.00532 L 134.00155 227.6875 C 133.25141 228.43764 132.82998 229.45506 132.82998 230.51592 L 132.82998 323.48408 C 132.82998 324.54494 133.25141 325.56236 134.00155 326.3125 Z M 118.26874 243.4203 L 114.58656 247.1025 C 113.83642 247.85263 113.41499 248.87005 113.41499 249.9309 L 113.41499 304.0691 C 113.41499 305.12995 113.83642 306.14737 114.58656 306.8975 L 118.26874 310.5797 C 119.3791 311.69005 121.17935 311.69005 122.28971 310.5797 C 122.82293 310.04647 123.12249 309.32328 123.12249 308.5692 L 123.12249 245.4308 C 123.12249 243.8605 121.84951 242.58754 120.27923 242.58754 C 119.52515 242.58754 118.80195 242.8871 118.26874 243.4203 Z M 152.24497 343.29615 C 152.76453 343.23935 153.26896 343.0118 153.6673 342.61345 L 161.54352 334.73723 C 162.29367 333.9871 162.7151 332.96966 162.7151 331.9088 L 162.7151 222.0912 C 162.7151 221.03034 162.29367 220.01292 161.54352 219.26277 L 153.6673 211.38655 L 153.6673 211.38655 C 153.6673 211.38655 153.6673 211.38655 153.6673 211.38655 C 153.26896 210.98822 152.76453 210.76065 152.24497 210.70385 Z M 98.85375 262.8353 L 95.17157 266.51748 C 94.42143 267.26762 94 268.28504 94 269.3459 L 94 284.6541 C 94 285.71496 94.42143 286.73238 95.17157 287.48252 L 98.85375 291.1647 C 99.96411 292.27506 101.76436 292.27506 102.87472 291.1647 C 103.40794 290.6315 103.7075 289.9083 103.7075 289.1542 L 103.7075 264.8458 C 103.7075 263.2755 102.43452 262.00253 100.86424 262.00253 C 100.11016 262.00253 99.38696 262.3021 98.85375 262.8353 Z M 200.58307 295.69768 L 202.85404 293.4267 C 203.60418 292.67656 204.0256 291.65915 204.0256 290.59828 L 204.0256 263.40172 C 204.0256 262.34085 203.60418 261.32344 202.85404 260.5733 L 200.58307 258.30232 C 199.79554 257.5148 198.5187 257.5148 197.73117 258.30232 C 197.35299 258.6805 197.14053 259.19344 197.14053 259.72827 L 197.14053 294.27173 C 197.14053 295.38546 198.04339 296.28832 199.15712 296.28832 C 199.69195 296.28832 200.20488 296.07586 200.58307 295.69768 Z M 189.08387 246.80312 L 186.8129 244.53215 C 186.02537 243.74462 184.74853 243.74462 183.961 244.53215 C 183.58281 244.91033 183.37035 245.42326 183.37035 245.9581 L 183.37035 308.0419 C 183.37035 309.15564 184.27321 310.0585 185.38695 310.0585 C 185.92178 310.0585 186.4347 309.84604 186.8129 309.46785 L 189.08387 307.19688 C 189.834 306.44673 190.25544 305.42932 190.25544 304.36845 L 190.25544 249.63155 C 190.25544 248.57068 189.834 247.55327 189.08387 246.80312 Z M 214.25452 282.02622 L 217.59835 278.6824 C 218.5275 277.75323 218.5275 276.24677 217.59835 275.3176 L 214.25452 271.97378 C 213.48958 271.20883 212.24935 271.20883 211.4844 271.97378 C 211.11707 272.34112 210.9107 272.83934 210.9107 273.35884 L 210.9107 280.64116 C 210.9107 281.72296 211.78767 282.59993 212.86947 282.59993 C 213.38896 282.59993 213.88718 282.39356 214.25452 282.02622 Z M 175.3137 233.03295 L 173.04272 230.76198 C 172.2552 229.97445 170.97836 229.97445 170.19083 230.76198 C 169.81264 231.14016 169.60018 231.6531 169.60018 232.18792 L 169.60018 321.81208 C 169.60018 322.9258 170.50304 323.82867 171.61677 323.82867 C 172.1516 323.82867 172.66454 323.6162 173.04272 323.23802 L 175.3137 320.96705 C 176.06384 320.2169 176.48527 319.1995 176.48527 318.13863 L 176.48527 235.86137 C 176.48527 234.8005 176.06384 233.7831 175.3137 233.03295 Z" fill="#ef8665"/>
      </g>
      <g id="Graphic_4">
        <text transform="translate(247.18003 206.20385)" fill="#3a3a3a">
          <tspan font-family="Avenir Next" font-style="italic" font-weight="bold" font-size="51" fill="#3a3a3a" x="0" y="51" xml:space="preserve">Denum</tspan>
        </text>
      </g>
      <g id="Line_3">
        <line x1="241" y1="273" x2="584.7656" y2="273" stroke="#3a3a3a" stroke-linecap="round" stroke-linejoin="round" stroke-width="1.5"/>
      </g>
      <g id="Graphic_6">
        <text transform="translate(242 282)" fill="#3a3a3a">
          <tspan font-family="Avenir Next" font-size="24" fill="#3a3a3a" x="0" y="24" xml:space="preserve">A tiny language with </tspan>
          <tspan font-family="Avenir Next" font-size="24" fill="#3a3a3a" x="0" y="57" xml:space="preserve">functions and sort definitions</tspan>
        </text>
      </g>
    </g>
  </g>
</svg>
