<?xml version="1.0" encoding="UTF-8" standalone="no"?>
<!DOCTYPE svg PUBLIC "-//W3C//DTD SVG 1.1//EN" "http://www.w3.org/Graphics/SVG/1.1/DTD/svg11.dtd">
<svg xmlns:xl="http://www.w3.org/1999/xlink" xmlns:dc="http://purl.org/dc/elements/1.1/" xmlns="http://www.w3.org/2000/svg" version="1.1" viewBox="61 -57 365 150" width="365" height="150">
  <defs>
    <filter id="Shadow" filterUnits="userSpaceOnUse" x="24.5" y="-72">
      <feGaussianBlur in="SourceAlpha" result="blur" stdDeviation="-3.3333333"/>
      <feOffset in="blur" result="offset" dx="0" dy="2"/>
      <feFlood flood-color="black" flood-opacity=".5" result="flood"/>
      <feComposite in="flood" in2="offset" operator="in" result="color"/>
      <feMerge>
        <feMergeNode in="color"/>
        <feMergeNode in="SourceGraphic"/>
      </feMerge>
    </filter>
    <filter id="Shadow_2" filterUnits="userSpaceOnUse" x="24.5" y="-72">
      <feGaussianBlur in="SourceAlpha" result="blur" stdDeviation="-5.3333333"/>
      <feOffset in="blur" result="offset" dx="0" dy="4"/>
      <feFlood flood-color="black" flood-opacity=".5977663" result="flood"/>
      <feComposite in="flood" in2="offset" operator="in" result="color"/>
      <feMerge>
        <feMergeNode in="color"/>
        <feMergeNode in="SourceGraphic"/>
      </feMerge>
    </filter>
  </defs>
  <g id="Canvas_1" fill-opacity="1" stroke-opacity="1" stroke-dasharray="none" stroke="none" fill="none">
    <title>Canvas 1</title>
    <g id="Canvas_1_Layer_1">
      <title>Layer 1</title>
      <g id="Graphic_7" filter="url(#Shadow)">
        <path d="M 71.84724 -43.077263 L 414.8464 -43.914665 C 417.6078 -43.921407 419.85183 -41.6883 419.8586 -38.926887 C 419.8586 -38.926887 419.8586 -38.926887 419.8586 -38.926887 L 420.12834 71.56876 C 420.1351 74.33018 417.902 76.57421 415.14056 76.580955 L 72.14142 77.41836 C 69.38 77.4251 67.13597 75.19199 67.129225 72.43058 C 67.129225 72.43058 67.129225 72.43058 67.129225 72.43058 L 66.85946 -38.06507 C 66.85272 -40.826486 69.08582 -43.07052 71.84724 -43.077263 Z" fill="white"/>
      </g>
      <g id="Graphic_6" filter="url(#Shadow_2)">
        <path d="M 123.18107 -26.49847 L 123.18107 -26.498524 L 80 -26.498524 L 80 16.68255 L 80.00005 16.68255 C 80.00002 16.705648 80 16.728745 80 16.751846 C 80 40.638366 99.36385 60.002216 123.25037 60.002216 L 166.43144 60.002216 L 166.43144 19.220907 C 166.47744 18.403743 166.50074 17.580516 166.50074 16.751846 C 166.50074 -7.134674 147.13689 -26.498524 123.25037 -26.498524 C 123.22727 -26.498524 123.20417 -26.498506 123.18107 -26.49847 Z" fill="#f16334"/>
      </g>
      <g id="Graphic_5">
        <title>R</title>
        <path d="M 124.6489 32.858298 L 111.65339 26.515662 C 108.34418 31.042856 106.49426 34.0303 106.10359 35.47808 C 105.82782 36.51221 105.2131 37.37972 104.2594 38.08063 C 103.3057 38.78154 102.62203 39.13199 102.20838 39.13199 C 101.03637 39.13199 100.45037 38.683874 100.45037 37.78763 C 100.45037 37.282053 101.14552 35.828547 102.53586 33.427066 C 103.92619 31.025586 105.8393 28.19326 108.27525 24.930004 C 106.91939 24.378467 106.08061 24.010782 105.75888 23.826937 C 105.43715 23.64309 105.31076 23.29264 105.3797 22.775576 C 105.44864 22.25851 105.8508 21.448454 106.58618 20.345382 C 107.22964 19.380193 107.71223 18.730999 108.03395 18.39778 C 108.35568 18.06456 108.73486 17.800285 109.17149 17.60495 C 109.60813 17.409614 110.06773 17.277477 110.55033 17.208535 C 111.03292 17.139593 112.38876 16.96724 114.61789 16.691472 C 116.43336 14.23254 118.40392 11.578311 120.52964 8.728708 C 122.65535 5.8791036 124.31568 3.6615016 125.51067 2.0758349 C 121.9027 2.558429 119.38636 2.960585 117.96156 3.2823144 C 116.44483 3.581063 115.17517 3.8281017 114.15253 4.0234375 C 113.12989 4.218773 112.41175 4.3911257 111.9981 4.5405 C 111.58445 4.6898745 111.37763 4.9024426 111.37763 5.178211 C 111.37763 5.430998 111.63041 5.6033507 112.13598 5.6952734 C 112.64156 5.787196 113.27926 5.833157 114.04912 5.833157 C 114.81897 5.833157 115.41646 5.861882 115.8416 5.919334 C 116.26674 5.9767855 116.47931 6.1089224 116.47931 6.3157485 C 116.47931 6.545555 116.1978 6.677692 115.63478 6.712163 C 115.07175 6.746634 113.49185 6.82132 110.89503 6.936224 C 109.42427 6.982185 108.18908 7.028146 107.18942 7.074107 C 106.18976 7.1200684 105.4946 7.143049 105.10393 7.143049 C 104.57538 7.143049 104.16173 6.9821864 103.86298 6.660457 C 103.56423 6.3387275 103.41486 5.913591 103.41486 5.385036 C 103.41486 4.994364 103.63317 4.270484 104.06981 3.2133727 C 104.50644 2.1562615 105.12691 1.0876761 105.93123 .007584292 C 106.73556 -1.0725075 107.65477 -1.9112896 108.6889 -2.5087872 C 109.86092 -3.2211882 111.6821 -3.9393236 114.15253 -4.663215 C 116.62295 -5.387106 119.3691 -5.973105 122.39106 -6.421228 C 125.41302 -6.869351 128.40621 -7.093409 131.37072 -7.093409 C 133.16321 -7.093409 134.91546 -6.989998 136.62752 -6.783172 C 138.33958 -6.576346 139.89075 -6.323562 141.28108 -6.024813 C 142.67141 -5.7260644 143.76872 -5.42732 144.57305 -5.128571 C 146.66429 -4.439151 148.26717 -3.393546 149.38173 -1.9917246 C 150.4963 -.5899033 151.05357 .9497789 151.05357 2.6273683 C 151.05357 4.2589964 150.77206 5.8503844 150.20903 7.40158 C 149.646 8.952776 148.78424 10.389047 147.62372 11.710435 C 146.4632 13.031824 145.06714 14.106155 143.43551 14.93346 C 142.10263 15.62288 140.08036 16.32378 137.36864 17.03618 C 134.65692 17.748582 131.38222 18.38054 127.54445 18.932077 C 123.70668 19.483613 119.42085 19.88577 114.68683 20.138557 C 118.22585 21.379513 121.52927 22.626196 124.5972 23.878643 C 127.66511 25.13109 130.2504 26.245636 132.35313 27.222315 C 134.45587 28.198993 136.1047 28.99756 137.2997 29.61804 C 138.97729 30.491304 140.06886 31.123263 140.57443 31.513935 C 141.08 31.904606 141.41322 32.410173 141.57408 33.03065 C 141.73495 33.65113 141.81538 34.673755 141.81538 36.098557 C 141.81538 37.707204 141.71771 38.896436 141.52238 39.66629 C 141.32704 40.43614 140.90765 40.82106 140.2642 40.82106 C 140.05737 40.82106 139.51158 40.597004 138.62683 40.14888 C 137.74207 39.700758 136.51837 39.04582 134.95568 38.184043 C 133.393 37.322267 131.97396 36.552426 130.69853 35.874496 C 129.4231 35.196566 127.40658 34.191177 124.6489 32.858298 Z M 127.68234 1.7311264 C 127.70532 1.8919912 127.72255 2.0413633 127.73404 2.1792474 C 127.74553 2.3171315 127.75128 2.5124643 127.75128 2.7652517 C 127.75128 3.4087107 127.5502 4.1498264 127.14804 4.988621 C 126.74588 5.827416 126.22882 6.689178 125.59685 7.573934 C 124.96488 8.45869 124.02269 9.722609 122.77024 11.365727 C 121.5178 13.008845 120.36303 14.519802 119.30592 15.898643 C 124.13186 14.979416 128.25109 14.094673 131.66372 13.244388 C 135.07635 12.394103 137.8857 11.538086 140.09184 10.67631 C 142.29798 9.814535 143.95831 8.906812 145.07288 7.953114 C 146.18744 6.9994155 146.74471 6.005516 146.74471 4.9713857 C 146.74471 3.822352 145.57846 2.9203738 143.24592 2.2654245 C 140.91338 1.6104752 138.05808 1.2830055 134.67992 1.2830055 C 133.9905 1.2830055 133.26087 1.3002407 132.49102 1.3347117 C 131.72116 1.3691828 130.80195 1.4381238 129.73335 1.5415368 C 128.66475 1.6449498 127.98108 1.7081458 127.68234 1.7311264 Z" fill="white"/>
      </g>
      <g id="Graphic_4">
        <text transform="translate(186.5 -24.37021)" fill="#6c6c6c">
          <tspan font-family="Helvetica Neue" font-weight="bold" font-size="30" fill="#6c6c6c" x="0" y="29">RESOLVE v2:</tspan>
        </text>
      </g>
      <g id="Graphic_3">
        <text transform="translate(186.5 25.160744)" fill="#6c6c6c">
          <tspan font-family="Helvetica Neue" font-size="15" fill="#6c6c6c" x="0" y="14">An Integrated Specification and </tspan>
          <tspan font-family="Helvetica Neue" font-size="15" fill="#6c6c6c" x="0" y="31.42">Programming Language</tspan>
        </text>
      </g>
      <g id="Line_2">
        <line x1="181.5" y1="17.5" x2="389.5" y2="17.5" stroke="#6c6c6c" stroke-linecap="round" stroke-linejoin="round" stroke-width="1.5"/>
      </g>
    </g>
  </g>
</svg>
