<?xml version="1.0" encoding="UTF-8" standalone="no"?>
<!DOCTYPE svg PUBLIC "-//W3C//DTD SVG 1.1//EN" "http://www.w3.org/Graphics/SVG/1.1/DTD/svg11.dtd">
<svg xmlns:xl="http://www.w3.org/1999/xlink" xmlns:dc="http://purl.org/dc/elements/1.1/" xmlns="http://www.w3.org/2000/svg" version="1.1" viewBox="61 -57 365 150" width="365" height="150">
  <defs/>
  <g id="Canvas_1" fill-opacity="1" stroke-opacity="1" stroke-dasharray="none" stroke="none" fill="none">
    <title>Canvas 1</title>
    <g id="Canvas_1_Layer_1">
      <title>Layer 1</title>
      <g id="Graphic_6">
        <path d="M 118.96935 -38.1418 L 118.96935 -38.14184 L 88.53638 -38.14184 L 88.53638 -7.708866 L 88.53642 -7.708866 C 88.53639 -7.692587 88.53638 -7.676309 88.53638 -7.660028 C 88.53638 9.174611 102.18355 22.821783 119.01819 22.821783 L 149.45116 22.821783 L 149.45116 -5.9198935 C 149.48358 -6.495811 149.5 -7.076001 149.5 -7.660028 C 149.5 -24.494667 135.85283 -38.14184 119.01819 -38.14184 C 119.0019 -38.14184 118.98563 -38.141826 118.96935 -38.1418 Z" fill="#f16334"/>
      </g>
      <g id="Graphic_5">
        <title>R</title>
        <path d="M 120.00384 3.691408 L 110.84492 -.7787272 C 108.51267 2.4119288 107.20889 4.517406 106.93355 5.537768 C 106.7392 6.266598 106.30596 6.8779965 105.63381 7.371981 C 104.96167 7.865966 104.47984 8.112955 104.18831 8.112955 C 103.3623 8.112955 102.9493 7.797133 102.9493 7.1654805 C 102.9493 6.809164 103.43923 5.784768 104.4191 4.0922625 C 105.39897 2.3997572 106.74729 .4036027 108.46409 -1.896261 C 107.50851 -2.2849704 106.91736 -2.544106 106.69061 -2.6736758 C 106.46386 -2.8032456 106.37479 -3.0502343 106.42337 -3.4146493 C 106.47196 -3.7790643 106.75539 -4.3499726 107.27367 -5.1273914 C 107.72717 -5.807633 108.06728 -6.265169 108.29403 -6.5000144 C 108.52078 -6.73486 108.78801 -6.921113 109.09574 -7.058781 C 109.40347 -7.196449 109.72739 -7.289576 110.06751 -7.338165 C 110.40763 -7.386753 111.36319 -7.508223 112.93422 -7.702578 C 114.21373 -9.435574 115.60253 -11.30621 117.10068 -13.314541 C 118.59883 -15.322873 119.76899 -16.885785 120.6112 -18.003324 C 118.06839 -17.663204 116.29493 -17.379774 115.29076 -17.153027 C 114.22181 -16.942476 113.32698 -16.76837 112.60625 -16.630701 C 111.88552 -16.493033 111.3794 -16.371564 111.08786 -16.266288 C 110.79633 -16.161013 110.65057 -16.0112 110.65057 -15.816845 C 110.65057 -15.638687 110.82872 -15.517217 111.18504 -15.452432 C 111.54136 -15.387647 111.9908 -15.355255 112.53337 -15.355255 C 113.07594 -15.355255 113.49704 -15.33501 113.79667 -15.29452 C 114.0963 -15.254029 114.24611 -15.160902 114.24611 -15.015136 C 114.24611 -14.853174 114.04771 -14.760047 113.6509 -14.735753 C 113.2541 -14.711458 112.14062 -14.658821 110.31045 -14.57784 C 109.27389 -14.545448 108.40336 -14.513056 107.69882 -14.480663 C 106.99429 -14.448271 106.50436 -14.432075 106.22902 -14.432075 C 105.85651 -14.432075 105.56498 -14.545447 105.35443 -14.772194 C 105.14388 -14.998941 105.0386 -15.298567 105.0386 -15.67108 C 105.0386 -15.946416 105.19247 -16.45659 105.5002 -17.201615 C 105.80792 -17.946642 106.24521 -18.699755 106.81208 -19.460977 C 107.37895 -20.2222 108.02679 -20.813353 108.75562 -21.234455 C 109.58163 -21.736538 110.86516 -22.242662 112.60625 -22.752843 C 114.34735 -23.263024 116.28277 -23.676022 118.41257 -23.991848 C 120.54237 -24.307674 122.6519 -24.465585 124.74121 -24.465585 C 126.00452 -24.465585 127.23946 -24.392703 128.44608 -24.246937 C 129.6527 -24.10117 130.74593 -23.923015 131.7258 -23.712464 C 132.70567 -23.501914 133.47903 -23.291366 134.0459 -23.080815 C 135.51975 -22.594928 136.64942 -21.85801 137.43494 -20.870041 C 138.22045 -19.882072 138.6132 -18.796941 138.6132 -17.614617 C 138.6132 -16.464685 138.4148 -15.343113 138.018 -14.249868 C 137.62119 -13.156623 137.01384 -12.144375 136.19593 -11.213092 C 135.37802 -10.281809 134.39412 -9.524647 133.24419 -8.941583 C 132.3048 -8.455696 130.87956 -7.961719 128.9684 -7.459636 C 127.05725 -6.957553 124.74932 -6.5121634 122.04455 -6.123454 C 119.33978 -5.734745 116.31923 -5.451315 112.98281 -5.2731566 C 115.47703 -4.3985606 117.8052 -3.5199287 119.9674 -2.6372345 C 122.1296 -1.7545403 123.95164 -.9690353 125.4336 -.28069583 C 126.91555 .40764365 128.07761 .970454 128.91982 1.407752 C 130.10214 2.0232085 130.87145 2.468598 131.22777 2.7439337 C 131.58408 3.0192695 131.81892 3.375581 131.9323 3.812879 C 132.04567 4.250177 132.10236 4.970898 132.10236 5.975064 C 132.10236 7.1088 132.03353 7.946942 131.89586 8.489515 C 131.75819 9.032089 131.46261 9.303371 131.00912 9.303371 C 130.86335 9.303371 130.4787 9.14546 129.85514 8.829634 C 129.23159 8.513808 128.36915 8.052222 127.26781 7.444864 C 126.16647 6.837506 125.16636 6.29494 124.26747 5.817152 C 123.36858 5.339363 121.94739 4.630789 120.00384 3.691408 Z M 122.14173 -18.246266 C 122.15793 -18.132893 122.17007 -18.02762 122.17817 -17.930442 C 122.18627 -17.833264 122.19032 -17.695599 122.19032 -17.51744 C 122.19032 -17.063946 122.0486 -16.541625 121.76517 -15.950463 C 121.48174 -15.359301 121.11733 -14.751952 120.67193 -14.128397 C 120.22653 -13.504843 119.5625 -12.614064 118.6798 -11.456034 C 117.79711 -10.298004 116.98326 -9.233118 116.23824 -8.261345 C 119.63944 -8.909194 122.54257 -9.532739 124.94771 -10.131999 C 127.35285 -10.73126 129.33281 -11.33456 130.88765 -11.941918 C 132.44248 -12.549277 133.61264 -13.189018 134.39816 -13.861161 C 135.18368 -14.533304 135.57643 -15.23378 135.57643 -15.96261 C 135.57643 -16.772422 134.75448 -17.408114 133.11057 -17.869706 C 131.46665 -18.331299 129.4543 -18.562091 127.07346 -18.562091 C 126.58757 -18.562091 126.07335 -18.549944 125.53077 -18.52565 C 124.9882 -18.501356 124.34036 -18.452768 123.58724 -18.379885 C 122.83411 -18.307002 122.35228 -18.262463 122.14173 -18.246266 Z" fill="white"/>
      </g>
      <g id="Graphic_4">
        <text transform="translate(154.5 -33.783678)" fill="#222">
          <tspan font-family="Helvetica Neue" font-weight="bold" font-size="43" fill="#222" x="0" y="42">ESOLVE v2</tspan>
        </text>
      </g>
      <g id="Graphic_3">
        <text transform="translate(158.5 23.463622)" fill="#222">
          <tspan font-family="Helvetica Neue" font-size="15" fill="#222" x="0" y="14">An Integrated Specification and </tspan>
          <tspan font-family="Helvetica Neue" font-size="15" fill="#222" x="0" y="31.42">Programming Language</tspan>
        </text>
      </g>
    </g>
  </g>
</svg>
