<?xml version="1.0" encoding="UTF-8" standalone="no"?>
<!DOCTYPE svg PUBLIC "-//W3C//DTD SVG 1.1//EN" "http://www.w3.org/Graphics/SVG/1.1/DTD/svg11.dtd">
<svg xmlns:xl="http://www.w3.org/1999/xlink" xmlns:dc="http://purl.org/dc/elements/1.1/" xmlns="http://www.w3.org/2000/svg" version="1.1" viewBox="61 -57 343 125" width="343" height="125">
  <defs/>
  <g id="Canvas_1" fill-opacity="1" stroke-opacity="1" stroke-dasharray="none" stroke="none" fill="none">
    <title>Canvas 1</title>
    <g id="Canvas_1_Layer_1">
      <title>Layer 1</title>
      <g id="Graphic_6">
        <path d="M 109.46935 -45.22269 L 109.46935 -45.22273 L 79.03638 -45.22273 L 79.03638 -14.789755 L 79.03642 -14.789755 C 79.03639 -14.773477 79.03638 -14.757199 79.03638 -14.740918 C 79.03638 2.0937215 92.68355 15.740893 109.51819 15.740893 L 139.95116 15.740893 L 139.95116 -13.000783 C 139.98358 -13.5767 140 -14.156891 140 -14.740918 C 140 -31.575557 126.35283 -45.22273 109.51819 -45.22273 C 109.5019 -45.22273 109.48563 -45.222716 109.46935 -45.22269 Z" fill="#f16334"/>
      </g>
      <g id="Graphic_5">
        <title>R</title>
        <path d="M 110.50384 -3.3894815 L 101.34492 -7.859617 C 99.01267 -4.668961 97.70889 -2.5634834 97.43355 -1.5431213 C 97.2392 -.8142913 96.80596 -.20289304 96.13381 .29109176 C 95.46167 .7850766 94.97984 1.0320653 94.68831 1.0320653 C 93.8623 1.0320653 93.4493 .71624365 93.4493 .08459095 C 93.4493 -.27172596 93.93923 -1.2961217 94.9191 -2.988627 C 95.89897 -4.6811323 97.24729 -6.677287 98.96409 -8.977151 C 98.00851 -9.36586 97.41736 -9.624996 97.19061 -9.754565 C 96.96386 -9.884135 96.87479 -10.131124 96.92337 -10.495539 C 96.97196 -10.859954 97.25539 -11.430862 97.77367 -12.208281 C 98.22717 -12.888522 98.56728 -13.346059 98.79403 -13.580904 C 99.02078 -13.81575 99.28801 -14.002003 99.59574 -14.139671 C 99.90347 -14.277339 100.22739 -14.370466 100.56751 -14.419054 C 100.90763 -14.467643 101.86319 -14.589113 103.43422 -14.783468 C 104.71373 -16.516463 106.10253 -18.3871 107.60068 -20.39543 C 109.09883 -22.403762 110.26899 -23.966674 111.1112 -25.084214 C 108.56839 -24.744093 106.79493 -24.460664 105.79076 -24.233916 C 104.72181 -24.023366 103.82698 -23.84926 103.10625 -23.71159 C 102.38552 -23.573923 101.8794 -23.452453 101.58786 -23.347178 C 101.29633 -23.241902 101.15057 -23.09209 101.15057 -22.897735 C 101.15057 -22.719576 101.32872 -22.598106 101.68504 -22.533322 C 102.04136 -22.468537 102.4908 -22.436145 103.03337 -22.436145 C 103.57594 -22.436145 103.99704 -22.4159 104.29667 -22.37541 C 104.5963 -22.334919 104.74611 -22.241792 104.74611 -22.096026 C 104.74611 -21.934063 104.54771 -21.840937 104.1509 -21.816642 C 103.7541 -21.792348 102.64062 -21.73971 100.81045 -21.65873 C 99.77389 -21.626337 98.90336 -21.593945 98.19882 -21.561553 C 97.49429 -21.52916 97.00436 -21.512965 96.72902 -21.512965 C 96.35651 -21.512965 96.06498 -21.626336 95.85443 -21.853084 C 95.64388 -22.07983 95.5386 -22.379456 95.5386 -22.75197 C 95.5386 -23.027305 95.69247 -23.537479 96.0002 -24.282505 C 96.30792 -25.02753 96.74521 -25.780644 97.31208 -26.541867 C 97.87895 -27.30309 98.52679 -27.894242 99.25562 -28.315344 C 100.08163 -28.817427 101.36516 -29.32355 103.10625 -29.833733 C 104.84735 -30.343914 106.78277 -30.75691 108.91257 -31.072737 C 111.04237 -31.388564 113.1519 -31.546475 115.24121 -31.546475 C 116.50452 -31.546475 117.73946 -31.473593 118.94608 -31.327827 C 120.1527 -31.18206 121.24593 -31.003905 122.2258 -30.793354 C 123.20567 -30.582803 123.97903 -30.372255 124.5459 -30.161704 C 126.01975 -29.675818 127.14942 -28.9389 127.93494 -27.95093 C 128.72045 -26.96296 129.1132 -25.87783 129.1132 -24.695506 C 129.1132 -23.545575 128.9148 -22.424003 128.518 -21.330758 C 128.12119 -20.237513 127.51384 -19.225264 126.69593 -18.293981 C 125.87802 -17.362698 124.89412 -16.605536 123.74419 -16.022472 C 122.8048 -15.536586 121.37956 -15.042608 119.4684 -14.540525 C 117.55725 -14.038442 115.24932 -13.593053 112.54455 -13.204344 C 109.83978 -12.815634 106.81923 -12.532205 103.48281 -12.354046 C 105.97703 -11.47945 108.3052 -10.600818 110.4674 -9.718124 C 112.6296 -8.83543 114.45164 -8.049925 115.9336 -7.361585 C 117.41555 -6.673246 118.57761 -6.1104356 119.41982 -5.6731376 C 120.60214 -5.057681 121.37145 -4.6122916 121.72777 -4.336956 C 122.08408 -4.06162 122.31892 -3.7053085 122.4323 -3.2680105 C 122.54567 -2.8307124 122.60236 -2.1099913 122.60236 -1.1058255 C 122.60236 .02791012 122.53353 .8660521 122.39586 1.4086256 C 122.25819 1.951199 121.96261 2.2224817 121.50912 2.2224817 C 121.36335 2.2224817 120.9787 2.064571 120.35514 1.7487445 C 119.73159 1.4329182 118.86915 .9713328 117.76781 .3639744 C 116.66647 -.24338397 115.66636 -.7859493 114.76747 -1.2637379 C 113.86858 -1.7415265 112.44739 -2.4501006 110.50384 -3.3894815 Z M 112.64173 -25.327156 C 112.65793 -25.213782 112.67007 -25.10851 112.67817 -25.01133 C 112.68627 -24.914154 112.69032 -24.776488 112.69032 -24.59833 C 112.69032 -24.144835 112.5486 -23.622515 112.26517 -23.031353 C 111.98174 -22.44019 111.61733 -21.832841 111.17193 -21.209287 C 110.72653 -20.585732 110.0625 -19.694953 109.1798 -18.536923 C 108.29711 -17.378893 107.48326 -16.314008 106.73824 -15.342234 C 110.13944 -15.990083 113.04257 -16.613629 115.44771 -17.212889 C 117.85285 -17.81215 119.83281 -18.41545 121.38765 -19.022808 C 122.94248 -19.630166 124.11264 -20.269907 124.89816 -20.94205 C 125.68368 -21.614194 126.07643 -22.31467 126.07643 -23.0435 C 126.07643 -23.85331 125.25448 -24.489003 123.61057 -24.950596 C 121.96665 -25.412188 119.9543 -25.64298 117.57346 -25.64298 C 117.08757 -25.64298 116.57335 -25.630834 116.03077 -25.60654 C 115.4882 -25.582245 114.84036 -25.533657 114.08724 -25.460774 C 113.33411 -25.38789 112.85228 -25.343352 112.64173 -25.327156 Z" fill="white"/>
      </g>
      <g id="Graphic_4">
        <text transform="translate(145 -40.864567)" fill="#222">
          <tspan font-family="Helvetica Neue" font-weight="bold" font-size="43" fill="#222" x="0" y="42">ESOLVE v2</tspan>
        </text>
      </g>
      <g id="Graphic_3">
        <text transform="translate(149 16.382732)" fill="#222">
          <tspan font-family="Helvetica Neue" font-size="15" fill="#222" x="0" y="14">An Integrated Specification and </tspan>
          <tspan font-family="Helvetica Neue" font-size="15" fill="#222" x="0" y="31.42">Programming Language</tspan>
        </text>
      </g>
    </g>
  </g>
</svg>
